HIERARCHY
ROOT Hips
{
  OFFSET 0 0 0
  CHANNELS 6 Xposition Yposition Zposition Zrotation Yrotation Xrotation
  JOINT LeftThigh
  {
    OFFSET 8.409438 0 -5.917753
    CHANNELS 3 Zrotation Yrotation Xrotation
    JOINT LeftLeg
    {
      OFFSET 0 0 -42.358652
      CHANNELS 3 Zrotation Yrotation Xrotation
      JOINT LeftFoot
      {
        OFFSET 0 0 -39.357303
        CHANNELS 3 Zrotation Yrotation Xrotation
      }
    }
  }
  JOINT RightThigh
  {
    OFFSET -8.409438 0 -5.917753
    CHANNELS 3 Zrotation Yrotation Xrotation
    JOINT RightLeg
    {
      OFFSET 0 0 -42.358652
      CHANNELS 3 Zrotation Yrotation Xrotation
      JOINT RightFoot
      {
        OFFSET 0 0 -39.357303
        CHANNELS 3 Zrotation Yrotation Xrotation
      }
    }
  }
  JOINT SpineLow
  {
    OFFSET 0 0 4.719101
    CHANNELS 3 Zrotation Yrotation Xrotation
    JOINT SpineMid
    {
      OFFSET 0 0 12.899191
      CHANNELS 3 Zrotation Yrotation Xrotation
      JOINT Chest
      {
        OFFSET 0 0 12.899191
        CHANNELS 3 Zrotation Yrotation Xrotation
        JOINT LeftShoulder
        {
          OFFSET 7.550562 1.41573 9.438202
          CHANNELS 3 Zrotation Yrotation Xrotation
          JOINT LeftArm
          {
            OFFSET 9.155056 0 4.247191
            CHANNELS 3 Zrotation Yrotation Xrotation
            JOINT LeftForearm
            {
              OFFSET 0 0 25.771955
              CHANNELS 3 Zrotation Yrotation Xrotation
              JOINT LeftHand
              {
                OFFSET 0 0 25.197169
                CHANNELS 3 Zrotation Yrotation Xrotation
              }
            }
          }
        }
        JOINT RightShoulder
        {
          OFFSET -7.550562 1.41573 9.438202
          CHANNELS 3 Zrotation Yrotation Xrotation
          JOINT RightArm
          {
            OFFSET -9.155056 0 4.247191
            CHANNELS 3 Zrotation Yrotation Xrotation
            JOINT RightForearm
            {
              OFFSET 0 0 -25.771955
              CHANNELS 3 Zrotation Yrotation Xrotation
              JOINT RightHand
              {
                OFFSET 0 0 -25.197169
                CHANNELS 3 Zrotation Yrotation Xrotation
              }
            }
          }
        }
        JOINT Neck
        {
          OFFSET 0 0 15.101124
          CHANNELS 3 Zrotation Yrotation Xrotation
          JOINT Head
          {
            OFFSET 0 0 11.325843
            CHANNELS 3 Zrotation Yrotation Xrotation
            End Site
            {
              OFFSET 0 0 14.157303
            }
          }
        }
      }
    }
  }
}
MOTION
Frames: 12
Frame Time: 0.0
0.0  89.887642  0.0  4.25847  -21.464491  -100.477631  21.826674  -13.455453  4.053157  0.687139  5.359161  26.007996  5.403618  2.137756  2.686247  0.050398  10.533992  -6.450024  -3.186907  5.943805  19.564066  4.779817  1.522929  0.106224  1.453328  0.22299  1.162727  3.982273  0.539263  3.19034  3.982273  0.539263  3.19034  -2.032255  21.3925  5.074051  136.789939  36.619502  -170.962899  -3.872802  -4.796592  27.552152  82.011816  -7.429473  3.105823  -2.99579  -0.388358  18.871533  62.533452  32.411122  22.389298  22.175121  15.793863  -42.674502  97.583605  8.018145  -19.960378  -7.730905  0.383577  -2.927176  -5.796478  0.324785  -2.190937  
0.0  89.887642  0.0  4.299632  -21.506697  -100.559009  21.667178  -13.396424  4.15337  0.901086  5.30723  26.061539  5.430878  2.171556  2.644156  0.123243  10.674967  -6.327906  -3.285655  5.92135  19.511895  4.746513  1.49697  0.139848  1.44934  0.226062  1.153224  3.971453  0.54842  3.164533  3.971453  0.54842  3.164534  -2.049262  21.388916  5.101396  137.141024  36.410789  -170.947181  -3.506546  -4.920695  27.473614  81.911315  -7.3658  3.103099  -2.907856  -0.368821  18.990311  62.850333  32.434733  22.605554  21.850401  15.748648  -42.941853  97.504609  8.006972  -19.873517  -7.634686  0.418047  -2.743415  -5.72425  0.347883  -2.052709  
0.0  89.887642  0.0  4.315633  -21.594769  -100.657025  21.66726  -13.410306  4.344362  1.063799  5.2643  26.067209  5.401083  2.187772  2.568235  0.087063  10.769295  -6.255039  -3.306242  5.88414  19.499948  4.671061  1.470725  0.184401  1.45955  0.226316  1.152883  3.999363  0.548642  3.163694  3.999364  0.548642  3.163694  -2.023957  21.386497  5.161276  137.236671  36.336668  -170.933399  -3.427713  -4.946423  27.27537  81.911645  -7.351932  3.111733  -2.932543  -0.328191  19.050938  62.954926  32.489535  22.661772  21.781225  15.764282  -43.240658  97.540631  7.974776  -19.864319  -7.608655  0.43028  -2.626878  -5.704741  0.35549  -1.965153  
0.0  89.887642  0.0  4.370579  -21.628075  -100.707003  21.381316  -13.307225  4.387108  1.465565  5.176436  26.211796  5.424274  2.215845  2.546369  -0.007567  10.972877  -6.269349  -3.280476  5.827271  19.543785  4.561195  1.400223  0.239579  1.457493  0.23924  1.141511  3.994278  0.584733  3.133394  3.994278  0.584733  3.133394  -2.050852  21.339317  5.213079  137.628716  36.245177  -170.892862  -3.195295  -4.973175  27.22964  81.853158  -7.296014  3.116449  -2.946733  -0.320979  19.137436  63.434387  32.500752  22.951872  21.385252  15.68187  -43.515933  97.386521  7.939792  -19.778639  -7.542616  0.417502  -2.517991  -5.655331  0.344274  -1.883672  
0.0  89.887642  0.0  4.398808  -21.777584  -100.785891  21.338067  -13.293307  4.552644  1.815428  5.114895  26.28207  5.369619  2.213531  2.475166  -0.087477  11.096337  -6.300769  -3.336454  5.797336  19.624254  4.448401  1.36007  0.309969  1.477176  0.246844  1.143798  4.048453  0.604428  3.140272  4.048453  0.604428  3.140272  -1.999396  21.297596  5.283099  137.828691  36.244244  -170.826256  -3.124409  -4.946526  27.099828  81.870432  -7.255356  3.147894  -2.97751  -0.293672  19.183399  63.601986  32.567717  23.031708  21.268258  15.669757  -43.843666  97.450559  7.869362  -19.783596  -7.517503  0.386401  -2.491151  -5.636643  0.320509  -1.863938  
0.0  89.887642  0.0  4.455032  -21.856661  -100.782574  21.099226  -13.21308  4.587648  2.186461  5.083427  26.368063  5.506448  2.263255  2.496095  -0.317423  11.301798  -6.502808  -3.406069  5.806514  19.783914  4.311993  1.232894  0.395756  1.471441  0.266062  1.129899  4.03358  0.658043  3.103431  4.03358  0.658043  3.103431  -2.025068  21.203507  5.303089  138.270919  36.205388  -170.727133  -2.94787  -4.944476  27.048906  81.851036  -7.15466  3.150163  -2.934491  -0.297943  19.247859  64.083556  32.593508  23.346854  20.940088  15.599814  -44.189277  97.299305  7.769949  -19.628715  -7.405177  0.337304  -2.480407  -5.552606  0.28309  -1.856536  
0.0  89.887642  0.0  4.512892  -22.07291  -100.817708  20.968858  -13.182776  4.673142  2.79605  5.049212  26.589258  5.386409  2.262128  2.369728  -0.554809  11.453092  -6.769031  -3.533739  5.812482  20.09518  4.282538  1.194088  0.461884  1.495093  0.282136  1.128267  4.098969  0.700938  3.100195  4.098969  0.700938  3.100195  -1.951201  21.134644  5.378495  138.581206  36.237499  -170.622639  -2.818516  -4.928728  26.973504  81.948764  -7.08122  3.143848  -2.90831  -0.295316  19.291227  64.253286  32.672448  23.472064  20.822177  15.5795  -44.566565  97.365516  7.646562  -19.549862  -7.344252  0.281411  -2.551527  -5.507117  0.241769  -1.910587  
0.0  89.887642  0.0  4.600409  -22.121802  -100.705415  20.543211  -13.038424  4.522615  3.30212  5.031202  26.808965  5.541716  2.326354  2.436221  -1.231312  11.719344  -7.385698  -3.85972  5.884343  20.531882  4.582144  1.134269  0.588072  1.484423  0.311196  1.10352  4.070925  0.782343  3.034284  4.070925  0.782343  3.034284  -1.96874  21.041651  5.423733  138.971811  36.271103  -170.526286  -2.725177  -4.944526  26.934164  82.040979  -6.953763  3.093135  -2.93679  -0.313473  19.303229  64.757481  32.724635  23.851139  20.611513  15.479213  -45.020783  97.369236  7.562228  -19.442443  -7.222805  0.210432  -2.651596  -5.416306  0.1892  -1.986537  
0.0  89.887642  0.0  4.741364  -22.377453  -100.639485  20.429544  -12.904009  4.377213  3.981693  5.013872  27.271266  5.402658  2.334282  2.320268  -1.871363  11.998425  -8.13372  -3.880134  5.872307  21.252576  4.733553  1.098638  0.658966  1.5146  0.346623  1.092051  4.154916  0.878445  3.005532  4.154916  0.878445  3.005532  -1.94064  20.944184  5.490812  139.303305  36.352298  -170.435007  -2.684584  -4.953965  26.921348  82.201502  -6.802631  3.038209  -2.876568  -0.340293  19.341776  64.939681  32.829704  24.01451  20.481709  15.401707  -45.489168  97.441018  7.338728  -19.336463  -7.146597  0.120086  -2.837229  -5.359526  0.123268  -2.126861  
0.0  89.887642  0.0  4.900771  -22.422442  -100.398746  19.898824  -12.5941  3.867587  4.66761  4.961749  27.878658  5.312871  2.335651  2.252634  -3.064048  12.38733  -9.406871  -3.523447  5.726527  22.352166  4.839375  1.077763  0.696275  1.50973  0.396166  1.057611  4.143416  1.016156  2.914518  4.143416  1.016156  2.914518  -1.998006  20.812246  5.531942  139.674312  36.455179  -170.335251  -2.691936  -4.961941  26.913982  82.365484  -6.598906  2.961843  -2.975868  -0.389089  19.311835  65.353607  32.916854  24.338406  20.433072  15.268611  -46.04342  97.625827  7.183751  -19.354319  -7.022839  0.003689  -3.060779  -5.267268  0.037949  -2.295901  
0.0  89.887642  0.0  5.167114  -22.683716  -100.195443  19.685757  -12.191404  3.434247  5.417447  4.936392  28.63732  5.244072  2.284863  2.185177  -3.821  12.690981  -10.593644  -3.207006  5.684752  23.431731  5.160469  1.082061  0.776142  1.547497  0.46103  1.030185  4.249112  1.193426  2.844362  4.249112  1.193426  2.844362  -2.038981  20.632247  5.597489  139.996185  36.594295  -170.215375  -2.70237  -4.965444  26.937179  82.557502  -6.356588  2.899768  -2.915266  -0.427566  19.364918  65.550529  33.033083  24.495883  20.316274  15.137933  -46.604667  97.714443  6.866378  -19.315716  -6.961213  -0.137335  -3.378941  -5.221856  -0.064523  -2.536159  
0.0  89.887642  0.0  5.423638  -22.434713  -99.673093  18.817232  -11.512177  2.547807  5.102529  4.891498  28.739057  6.020245  2.659328  2.786396  -5.367707  13.006505  -12.299671  -2.598052  5.586584  24.635362  5.622563  1.131707  0.909697  1.514333  0.544351  0.963447  4.160807  1.426673  2.666762  4.160807  1.426673  2.666762  -2.261253  20.379618  5.590327  140.338634  36.723407  -170.076596  -2.729012  -4.998942  26.945827  82.781421  -6.050651  2.83416  -3.335405  -0.460083  19.207268  66.177188  33.015884  24.851809  20.385477  15.025723  -47.23385  97.837756  6.525832  -19.281829  -6.883336  -0.314143  -3.740607  -5.164641  -0.193511  -2.809409  
